<mxfile host="app.diagrams.net" modified="2022-08-28T08:54:38.986Z" agent="5.0 (Macintosh; Intel Mac OS X 10_15_7) AppleWebKit/537.36 (KHTML, like Gecko) Chrome/104.0.0.0 Safari/537.36" etag="-i-aDGSpnHuUOOtX3Ksi" version="20.2.5" type="github">
  <diagram id="x-a5K6O89-SVlN0T_dsZ" name="Page-1">
    <mxGraphModel dx="728" dy="520" grid="1" gridSize="10" guides="1" tooltips="1" connect="1" arrows="1" fold="1" page="1" pageScale="1" pageWidth="850" pageHeight="1100" math="0" shadow="0">
      <root>
        <mxCell id="0" />
        <mxCell id="1" parent="0" />
        <mxCell id="qg29mvRBxijdw6XiFTNJ-1" value="发音" style="rounded=1;whiteSpace=wrap;html=1;fillColor=#dae8fc;strokeColor=#6c8ebf;" vertex="1" parent="1">
          <mxGeometry x="160" y="120" width="120" height="60" as="geometry" />
        </mxCell>
        <mxCell id="qg29mvRBxijdw6XiFTNJ-2" value="重读" style="rounded=1;whiteSpace=wrap;html=1;fillColor=#d5e8d4;strokeColor=#82b366;" vertex="1" parent="1">
          <mxGeometry x="160" y="180" width="120" height="60" as="geometry" />
        </mxCell>
        <mxCell id="qg29mvRBxijdw6XiFTNJ-3" value="节奏" style="rounded=1;whiteSpace=wrap;html=1;fillColor=#f8cecc;strokeColor=#b85450;" vertex="1" parent="1">
          <mxGeometry x="160" y="240" width="120" height="60" as="geometry" />
        </mxCell>
        <mxCell id="qg29mvRBxijdw6XiFTNJ-4" value="语调" style="rounded=1;whiteSpace=wrap;html=1;fillColor=#e1d5e7;strokeColor=#9673a6;" vertex="1" parent="1">
          <mxGeometry x="160" y="300" width="120" height="60" as="geometry" />
        </mxCell>
        <mxCell id="qg29mvRBxijdw6XiFTNJ-15" value="找元音" style="whiteSpace=wrap;html=1;rounded=1;arcSize=50;align=center;verticalAlign=middle;strokeWidth=1;autosize=1;spacing=4;treeFolding=1;treeMoving=1;newEdgeStyle={&quot;edgeStyle&quot;:&quot;entityRelationEdgeStyle&quot;,&quot;startArrow&quot;:&quot;none&quot;,&quot;endArrow&quot;:&quot;none&quot;,&quot;segment&quot;:10,&quot;curved&quot;:1};fillColor=default;" vertex="1" parent="1">
          <mxGeometry x="350" y="92.5" width="80" height="30" as="geometry" />
        </mxCell>
        <mxCell id="qg29mvRBxijdw6XiFTNJ-10" value="" style="edgeStyle=entityRelationEdgeStyle;startArrow=none;endArrow=none;segment=10;curved=1;rounded=0;exitX=1;exitY=0.5;exitDx=0;exitDy=0;" edge="1" parent="1" source="qg29mvRBxijdw6XiFTNJ-1" target="qg29mvRBxijdw6XiFTNJ-15">
          <mxGeometry relative="1" as="geometry">
            <mxPoint x="370" y="180" as="sourcePoint" />
          </mxGeometry>
        </mxCell>
        <mxCell id="qg29mvRBxijdw6XiFTNJ-19" value="划音节" style="whiteSpace=wrap;html=1;rounded=1;arcSize=50;align=center;verticalAlign=middle;strokeWidth=1;autosize=1;spacing=4;treeFolding=1;treeMoving=1;newEdgeStyle={&quot;edgeStyle&quot;:&quot;entityRelationEdgeStyle&quot;,&quot;startArrow&quot;:&quot;none&quot;,&quot;endArrow&quot;:&quot;none&quot;,&quot;segment&quot;:10,&quot;curved&quot;:1};fillColor=default;" vertex="1" parent="1">
          <mxGeometry x="350" y="135.5" width="80" height="30" as="geometry" />
        </mxCell>
        <mxCell id="qg29mvRBxijdw6XiFTNJ-20" value="" style="edgeStyle=entityRelationEdgeStyle;startArrow=none;endArrow=none;segment=10;curved=1;rounded=0;exitX=1;exitY=0.5;exitDx=0;exitDy=0;" edge="1" parent="1" target="qg29mvRBxijdw6XiFTNJ-19" source="qg29mvRBxijdw6XiFTNJ-1">
          <mxGeometry relative="1" as="geometry">
            <mxPoint x="280" y="195" as="sourcePoint" />
          </mxGeometry>
        </mxCell>
        <mxCell id="qg29mvRBxijdw6XiFTNJ-21" value="找重音" style="whiteSpace=wrap;html=1;rounded=1;arcSize=50;align=center;verticalAlign=middle;strokeWidth=1;autosize=1;spacing=4;treeFolding=1;treeMoving=1;newEdgeStyle={&quot;edgeStyle&quot;:&quot;entityRelationEdgeStyle&quot;,&quot;startArrow&quot;:&quot;none&quot;,&quot;endArrow&quot;:&quot;none&quot;,&quot;segment&quot;:10,&quot;curved&quot;:1};fillColor=default;" vertex="1" parent="1">
          <mxGeometry x="350" y="177.5" width="80" height="30" as="geometry" />
        </mxCell>
        <mxCell id="qg29mvRBxijdw6XiFTNJ-22" value="" style="edgeStyle=entityRelationEdgeStyle;startArrow=none;endArrow=none;segment=10;curved=1;rounded=0;exitX=1;exitY=0.5;exitDx=0;exitDy=0;" edge="1" parent="1" target="qg29mvRBxijdw6XiFTNJ-21" source="qg29mvRBxijdw6XiFTNJ-1">
          <mxGeometry relative="1" as="geometry">
            <mxPoint x="280" y="195" as="sourcePoint" />
          </mxGeometry>
        </mxCell>
        <mxCell id="qg29mvRBxijdw6XiFTNJ-23" value="朗读" style="rounded=1;whiteSpace=wrap;html=1;fillColor=#dae8fc;strokeColor=#6c8ebf;" vertex="1" parent="1">
          <mxGeometry x="560" y="120" width="120" height="60" as="geometry" />
        </mxCell>
        <mxCell id="qg29mvRBxijdw6XiFTNJ-24" value="背诵" style="rounded=1;whiteSpace=wrap;html=1;fillColor=#d5e8d4;strokeColor=#82b366;" vertex="1" parent="1">
          <mxGeometry x="560" y="180" width="120" height="60" as="geometry" />
        </mxCell>
        <mxCell id="qg29mvRBxijdw6XiFTNJ-25" value="复述" style="rounded=1;whiteSpace=wrap;html=1;fillColor=#f8cecc;strokeColor=#b85450;" vertex="1" parent="1">
          <mxGeometry x="560" y="240" width="120" height="60" as="geometry" />
        </mxCell>
        <mxCell id="qg29mvRBxijdw6XiFTNJ-26" value="听写" style="rounded=1;whiteSpace=wrap;html=1;fillColor=#e1d5e7;strokeColor=#9673a6;" vertex="1" parent="1">
          <mxGeometry x="560" y="300" width="120" height="60" as="geometry" />
        </mxCell>
        <mxCell id="qg29mvRBxijdw6XiFTNJ-27" value="回译&lt;br&gt;（中译英）" style="rounded=1;whiteSpace=wrap;html=1;fillColor=#fff2cc;strokeColor=#d6b656;" vertex="1" parent="1">
          <mxGeometry x="560" y="360" width="120" height="60" as="geometry" />
        </mxCell>
      </root>
    </mxGraphModel>
  </diagram>
</mxfile>
